<?xml version="1.0" encoding="utf-8"?>
<!-- Generator: Adobe Illustrator 27.5.0, SVG Export Plug-In . SVG Version: 6.00 Build 0)  -->
<svg version="1.1" xmlns="http://www.w3.org/2000/svg" xmlns:xlink="http://www.w3.org/1999/xlink" x="0px" y="0px"
	 viewBox="0 0 500 500" style="enable-background:new 0 0 500 500;" xml:space="preserve">
<g id="Background_Complete">
	<g>
		<rect y="382.398" style="fill:#EBEBEB;" width="500" height="0.25"/>
		<rect x="416.779" y="398.494" style="fill:#EBEBEB;" width="33.122" height="0.25"/>
		<rect x="322.527" y="401.208" style="fill:#EBEBEB;" width="8.693" height="0.25"/>
		<rect x="396.586" y="389.208" style="fill:#EBEBEB;" width="19.192" height="0.25"/>
		<rect x="52.459" y="390.888" style="fill:#EBEBEB;" width="43.193" height="0.25"/>
		<rect x="104.556" y="390.888" style="fill:#EBEBEB;" width="6.333" height="0.25"/>
		<rect x="131.471" y="395.111" style="fill:#EBEBEB;" width="93.676" height="0.25"/>
		<path style="fill:#EBEBEB;" d="M237.014,337.8H43.915c-3.147,0-5.708-2.561-5.708-5.708V60.66c0-3.147,2.561-5.708,5.708-5.708
			h193.099c3.146,0,5.707,2.561,5.707,5.708v271.432C242.721,335.239,240.16,337.8,237.014,337.8z M43.915,55.203
			c-3.01,0-5.458,2.448-5.458,5.458v271.432c0,3.01,2.448,5.458,5.458,5.458h193.099c3.009,0,5.457-2.448,5.457-5.458V60.66
			c0-3.009-2.448-5.458-5.457-5.458H43.915z"/>
		<path style="fill:#EBEBEB;" d="M453.31,337.8H260.212c-3.147,0-5.707-2.561-5.707-5.708V60.66c0-3.147,2.561-5.708,5.707-5.708
			H453.31c3.148,0,5.708,2.561,5.708,5.708v271.432C459.019,335.239,456.458,337.8,453.31,337.8z M260.212,55.203
			c-3.009,0-5.457,2.448-5.457,5.458v271.432c0,3.01,2.448,5.458,5.457,5.458H453.31c3.01,0,5.458-2.448,5.458-5.458V60.66
			c0-3.009-2.448-5.458-5.458-5.458H260.212z"/>
	</g>
	<g>
		<path style="opacity:0.4;fill:#E0E0E0;" d="M500,316.99v65.408H0v-65.414c14.05,2.307,18.37,7.878,39.27,7.878
			c26.34,0,26.34-8.852,52.69-8.852c26.34,0,26.34,8.852,52.68,8.852s26.34-8.852,52.69-8.852c26.34,0,26.34,8.852,52.68,8.852
			s26.34-8.852,52.69-8.852c26.34,0,26.34,8.852,52.68,8.852s26.34-8.852,52.68-8.852c26.35,0,26.35,8.852,52.69,8.852
			C481.64,324.863,485.96,319.297,500,316.99z"/>
		<path style="fill:#FAFAFA;" d="M280.311,167.566h-224.2c0,0,10.213-17.994,29.666-17.994s1.216,9.97,16.292,9.97
			s30.639-32.341,78.543-32.341s8.268,24.317,33.071,24.317C238.487,151.516,317.881,129.996,280.311,167.566z"/>
		<path style="fill:#FAFAFA;" d="M450.154,196.376h-112.1c0,0,5.106-8.997,14.833-8.997c9.727,0,0.608,4.985,8.146,4.985
			c7.538,0,15.32-16.171,39.272-16.171s4.134,12.158,16.535,12.158C429.241,188.352,468.939,177.592,450.154,196.376z"/>
		<path style="fill:#FAFAFA;" d="M230.265,100.261c9.468,0,0.592,4.852,7.929,4.852c7.337,0,14.911-15.74,38.225-15.74
			c22.915,0,5.619,13.386,16.484,13.844c0.194,0.005,0.38,0.013,0.591,0.013c10.875,0,22.101-23.329,56.656-23.329
			c34.555,0,5.964,17.54,23.855,17.54s75.161-15.523,48.06,11.576h-97.124h-64.598h-44.516
			C215.827,109.018,220.798,100.261,230.265,100.261z"/>
		<path style="fill:#E0E0E0;" d="M99.558,93.045c-1.526-0.619-3.123-1.07-4.766-1.35c-1.644-0.272-3.334-0.357-5.037-0.23
			c-1.231,0.095-2.465,0.309-3.686,0.627c-0.859-1.013-1.781-1.947-2.759-2.78c-1.355-1.148-2.806-2.114-4.312-2.893
			c-1.509-0.773-3.064-1.376-4.645-1.793c-1.579-0.416-3.181-0.686-4.775-0.707c1.549,0.397,3.026,1.031,4.43,1.78
			c1.403,0.751,2.721,1.656,3.932,2.675c2.427,2.04,4.355,4.617,5.67,7.454l0.907,1.957l1.733-1.075
			c2.512-1.558,5.405-2.524,8.446-2.738c1.517-0.107,3.067-0.054,4.612,0.18c1.543,0.235,3.09,0.612,4.58,1.23
			C102.55,94.421,101.081,93.665,99.558,93.045z"/>
		<path style="fill:#E0E0E0;" d="M130.648,112.538c-1.279-0.287-2.592-0.433-3.919-0.438c-1.326,0.001-2.665,0.156-3.986,0.478
			c-0.954,0.236-1.896,0.564-2.813,0.974c-0.807-0.683-1.653-1.296-2.53-1.823c-1.214-0.725-2.48-1.293-3.764-1.709
			c-1.286-0.41-2.587-0.68-3.882-0.801c-1.294-0.12-2.588-0.123-3.842,0.069c1.269,0.11,2.512,0.414,3.712,0.819
			c1.2,0.407,2.354,0.945,3.438,1.587c2.172,1.285,4.024,3.057,5.427,5.113l0.968,1.419l1.22-1.071
			c1.769-1.552,3.915-2.689,6.275-3.255c1.178-0.282,2.402-0.443,3.646-0.462c1.243-0.017,2.507,0.077,3.757,0.367
			C133.178,113.228,131.925,112.826,130.648,112.538z"/>
		<path style="fill:#E0E0E0;" d="M413.801,135.648c-1.805,0.489-3.559,1.179-5.237,2.055c-1.673,0.883-3.26,1.969-4.712,3.254
			c-1.048,0.932-2.017,1.974-2.902,3.101c-1.473-0.325-2.948-0.536-4.405-0.617c-2.014-0.107-3.99,0.018-5.887,0.348
			c-1.895,0.338-3.716,0.863-5.432,1.571c-1.713,0.709-3.347,1.566-4.803,2.643c1.674-0.705,3.445-1.148,5.229-1.436
			c1.785-0.285,3.599-0.373,5.394-0.285c3.597,0.177,7.111,1.181,10.25,2.842l2.165,1.146l0.828-2.163
			c1.2-3.135,3.152-5.998,5.754-8.281c1.299-1.14,2.736-2.157,4.293-3.008c1.557-0.848,3.215-1.571,4.986-2.036
			C417.452,134.836,415.604,135.162,413.801,135.648z"/>
	</g>
</g>
<g id="Background_Simple" style="display:none;">
	<g style="display:inline;">
		<path style="fill:#407BFF;" d="M351.86,141.3c-26.615,40.489-67.111,69.91-121.052,33.392
			c-40.544-27.448-13.615-82.415-77.217-85.772C41.17,82.985,45.077,236.754,127.971,299.782
			c82.894,63.028,223.606,65.754,296.77-28.564c23.892-30.8,43.382-79.187,23-116.64C430.027,122.024,375.583,105.21,351.86,141.3z"
			/>
		<path style="opacity:0.9;fill:#FFFFFF;" d="M351.86,141.3c-26.615,40.489-67.111,69.91-121.052,33.392
			c-40.544-27.448-13.615-82.415-77.217-85.772C41.17,82.985,45.077,236.754,127.971,299.782
			c82.894,63.028,223.606,65.754,296.77-28.564c23.892-30.8,43.382-79.187,23-116.64C430.027,122.024,375.583,105.21,351.86,141.3z"
			/>
	</g>
</g>
<g id="Shadow_1_">
	<ellipse id="_x3C_Path_x3E__57_" style="fill:#F5F5F5;" cx="250" cy="416.238" rx="193.889" ry="11.323"/>
</g>
<g id="Container_ship">
	<g>
		<g>
			<g>
				<g>
					<g>
						
							<rect x="138.609" y="259.124" transform="matrix(-1 -1.224647e-16 1.224647e-16 -1 321.2717 541.0752)" style="fill:#407BFF;" width="44.054" height="22.826"/>
						
							<rect x="138.609" y="259.124" transform="matrix(-1 -1.224647e-16 1.224647e-16 -1 321.2717 541.0752)" style="opacity:0.4;fill:#FAFAFA;" width="44.054" height="22.826"/>
					</g>
					<g>
						<rect x="127.291" y="259.124" style="fill:#407BFF;" width="11.318" height="22.826"/>
						<rect x="127.291" y="259.124" style="opacity:0.4;fill:#FAFAFA;" width="11.318" height="22.826"/>
						<rect x="127.291" y="259.124" style="opacity:0.2;" width="11.318" height="22.826"/>
					</g>
				</g>
				<g>
					
						<rect x="180.805" y="260.051" transform="matrix(-1 -1.224647e-16 1.224647e-16 -1 362.7187 541.0752)" style="opacity:0.2;" width="1.109" height="20.974"/>
					
						<rect x="178.367" y="260.051" transform="matrix(-1 -1.224647e-16 1.224647e-16 -1 357.8426 541.0752)" style="opacity:0.2;" width="1.109" height="20.974"/>
					
						<rect x="175.929" y="260.051" transform="matrix(-1 -1.224647e-16 1.224647e-16 -1 352.9664 541.0752)" style="opacity:0.2;" width="1.109" height="20.974"/>
					
						<rect x="173.491" y="260.051" transform="matrix(-1 -1.224647e-16 1.224647e-16 -1 348.0903 541.0752)" style="opacity:0.2;" width="1.109" height="20.974"/>
					
						<rect x="171.053" y="260.051" transform="matrix(-1 -1.224647e-16 1.224647e-16 -1 343.2142 541.0752)" style="opacity:0.2;" width="1.109" height="20.974"/>
					
						<rect x="168.615" y="260.051" transform="matrix(-1 -1.224647e-16 1.224647e-16 -1 338.3381 541.0752)" style="opacity:0.2;" width="1.109" height="20.974"/>
					
						<rect x="166.176" y="260.051" transform="matrix(-1 -1.224647e-16 1.224647e-16 -1 333.462 541.0752)" style="opacity:0.2;" width="1.109" height="20.974"/>
					
						<rect x="163.738" y="260.051" transform="matrix(-1 -1.224647e-16 1.224647e-16 -1 328.5858 541.0752)" style="opacity:0.2;" width="1.109" height="20.974"/>
					
						<rect x="161.3" y="260.051" transform="matrix(-1 -1.224647e-16 1.224647e-16 -1 323.7097 541.0752)" style="opacity:0.2;" width="1.109" height="20.974"/>
					
						<rect x="158.862" y="260.051" transform="matrix(-1 -1.224647e-16 1.224647e-16 -1 318.8336 541.0752)" style="opacity:0.2;" width="1.109" height="20.974"/>
					
						<rect x="156.424" y="260.051" transform="matrix(-1 -1.224647e-16 1.224647e-16 -1 313.9574 541.0752)" style="opacity:0.2;" width="1.109" height="20.974"/>
					
						<rect x="153.986" y="260.051" transform="matrix(-1 -1.224647e-16 1.224647e-16 -1 309.0814 541.0752)" style="opacity:0.2;" width="1.109" height="20.974"/>
					
						<rect x="151.548" y="260.051" transform="matrix(-1 -1.224647e-16 1.224647e-16 -1 304.2052 541.0752)" style="opacity:0.2;" width="1.109" height="20.974"/>
					
						<rect x="149.11" y="260.051" transform="matrix(-1 -1.224647e-16 1.224647e-16 -1 299.3291 541.0752)" style="opacity:0.2;" width="1.109" height="20.974"/>
					
						<rect x="146.672" y="260.051" transform="matrix(-1 -1.224647e-16 1.224647e-16 -1 294.453 541.0752)" style="opacity:0.2;" width="1.109" height="20.974"/>
					
						<rect x="144.234" y="260.051" transform="matrix(-1 -1.224647e-16 1.224647e-16 -1 289.5768 541.0752)" style="opacity:0.2;" width="1.109" height="20.974"/>
					
						<rect x="141.796" y="260.051" transform="matrix(-1 -1.224647e-16 1.224647e-16 -1 284.7008 541.0752)" style="opacity:0.2;" width="1.109" height="20.974"/>
					
						<rect x="139.358" y="260.051" transform="matrix(-1 -1.224647e-16 1.224647e-16 -1 279.8246 541.0752)" style="opacity:0.2;" width="1.109" height="20.974"/>
				</g>
			</g>
			<g>
				<g>
					
						<rect x="86.424" y="259.124" transform="matrix(-1 -1.224647e-16 1.224647e-16 -1 216.9029 541.0752)" style="fill:#407BFF;" width="44.054" height="22.826"/>
					<g>
						<rect x="75.107" y="259.124" style="fill:#407BFF;" width="11.317" height="22.826"/>
						<rect x="75.107" y="259.124" style="opacity:0.2;" width="11.317" height="22.826"/>
					</g>
				</g>
				<g>
					
						<rect x="128.62" y="260.051" transform="matrix(-1 -1.224647e-16 1.224647e-16 -1 258.35 541.0752)" style="opacity:0.2;" width="1.109" height="20.974"/>
					
						<rect x="126.182" y="260.051" transform="matrix(-1 -1.224647e-16 1.224647e-16 -1 253.4738 541.0752)" style="opacity:0.2;" width="1.109" height="20.974"/>
					
						<rect x="123.744" y="260.051" transform="matrix(-1 -1.224647e-16 1.224647e-16 -1 248.5978 541.0752)" style="opacity:0.2;" width="1.109" height="20.974"/>
					
						<rect x="121.306" y="260.051" transform="matrix(-1 -1.224647e-16 1.224647e-16 -1 243.7216 541.0752)" style="opacity:0.2;" width="1.109" height="20.974"/>
					
						<rect x="118.868" y="260.051" transform="matrix(-1 -1.224647e-16 1.224647e-16 -1 238.8455 541.0752)" style="opacity:0.2;" width="1.109" height="20.974"/>
					
						<rect x="116.43" y="260.051" transform="matrix(-1 -1.224647e-16 1.224647e-16 -1 233.9694 541.0752)" style="opacity:0.2;" width="1.109" height="20.974"/>
					
						<rect x="113.992" y="260.051" transform="matrix(-1 -1.224647e-16 1.224647e-16 -1 229.0932 541.0752)" style="opacity:0.2;" width="1.109" height="20.974"/>
					
						<rect x="111.554" y="260.051" transform="matrix(-1 -1.224647e-16 1.224647e-16 -1 224.2171 541.0752)" style="opacity:0.2;" width="1.109" height="20.974"/>
					
						<rect x="109.116" y="260.051" transform="matrix(-1 -1.224647e-16 1.224647e-16 -1 219.341 541.0752)" style="opacity:0.2;" width="1.109" height="20.974"/>
					
						<rect x="106.678" y="260.051" transform="matrix(-1 -1.224647e-16 1.224647e-16 -1 214.4648 541.0752)" style="opacity:0.2;" width="1.109" height="20.974"/>
					
						<rect x="104.24" y="260.051" transform="matrix(-1 -1.224647e-16 1.224647e-16 -1 209.5888 541.0752)" style="opacity:0.2;" width="1.109" height="20.974"/>
					
						<rect x="101.802" y="260.051" transform="matrix(-1 -1.224647e-16 1.224647e-16 -1 204.7126 541.0752)" style="opacity:0.2;" width="1.109" height="20.974"/>
					
						<rect x="99.364" y="260.051" transform="matrix(-1 -1.224647e-16 1.224647e-16 -1 199.8365 541.0752)" style="opacity:0.2;" width="1.109" height="20.974"/>
					
						<rect x="96.926" y="260.051" transform="matrix(-1 -1.224647e-16 1.224647e-16 -1 194.9604 541.0752)" style="opacity:0.2;" width="1.109" height="20.974"/>
					
						<rect x="94.488" y="260.051" transform="matrix(-1 -1.224647e-16 1.224647e-16 -1 190.0842 541.0752)" style="opacity:0.2;" width="1.109" height="20.974"/>
					
						<rect x="92.05" y="260.051" transform="matrix(-1 -1.224647e-16 1.224647e-16 -1 185.2082 541.0752)" style="opacity:0.2;" width="1.109" height="20.974"/>
					
						<rect x="89.612" y="260.051" transform="matrix(-1 -1.224647e-16 1.224647e-16 -1 180.332 541.0752)" style="opacity:0.2;" width="1.109" height="20.974"/>
					
						<rect x="87.174" y="260.051" transform="matrix(-1 -1.224647e-16 1.224647e-16 -1 175.4559 541.0752)" style="opacity:0.2;" width="1.109" height="20.974"/>
				</g>
			</g>
			<g>
				<g>
					
						<rect x="131.413" y="281.951" transform="matrix(-1 -1.224647e-16 1.224647e-16 -1 306.8794 586.728)" style="fill:#407BFF;" width="44.054" height="22.826"/>
					<g>
						<rect x="120.095" y="281.951" style="fill:#407BFF;" width="11.317" height="22.826"/>
						<rect x="120.095" y="281.951" style="opacity:0.2;" width="11.317" height="22.826"/>
					</g>
				</g>
				<g>
					
						<rect x="173.609" y="282.877" transform="matrix(-1 -1.224647e-16 1.224647e-16 -1 348.3264 586.728)" style="opacity:0.2;" width="1.109" height="20.974"/>
					
						<rect x="171.171" y="282.877" transform="matrix(-1 -1.224647e-16 1.224647e-16 -1 343.4503 586.728)" style="opacity:0.2;" width="1.109" height="20.974"/>
					
						<rect x="168.733" y="282.877" transform="matrix(-1 -1.224647e-16 1.224647e-16 -1 338.5742 586.728)" style="opacity:0.2;" width="1.109" height="20.974"/>
					
						<rect x="166.295" y="282.877" transform="matrix(-1 -1.224647e-16 1.224647e-16 -1 333.6981 586.728)" style="opacity:0.2;" width="1.109" height="20.974"/>
					
						<rect x="163.857" y="282.877" transform="matrix(-1 -1.224647e-16 1.224647e-16 -1 328.822 586.728)" style="opacity:0.2;" width="1.109" height="20.974"/>
					
						<rect x="161.418" y="282.877" transform="matrix(-1 -1.224647e-16 1.224647e-16 -1 323.9458 586.728)" style="opacity:0.2;" width="1.109" height="20.974"/>
					
						<rect x="158.98" y="282.877" transform="matrix(-1 -1.224647e-16 1.224647e-16 -1 319.0697 586.728)" style="opacity:0.2;" width="1.109" height="20.974"/>
					
						<rect x="156.542" y="282.877" transform="matrix(-1 -1.224647e-16 1.224647e-16 -1 314.1936 586.728)" style="opacity:0.2;" width="1.109" height="20.974"/>
					
						<rect x="154.104" y="282.877" transform="matrix(-1 -1.224647e-16 1.224647e-16 -1 309.3174 586.728)" style="opacity:0.2;" width="1.109" height="20.974"/>
					
						<rect x="151.666" y="282.877" transform="matrix(-1 -1.224647e-16 1.224647e-16 -1 304.4414 586.728)" style="opacity:0.2;" width="1.109" height="20.974"/>
					
						<rect x="149.228" y="282.877" transform="matrix(-1 -1.224647e-16 1.224647e-16 -1 299.5652 586.728)" style="opacity:0.2;" width="1.109" height="20.974"/>
					
						<rect x="146.79" y="282.877" transform="matrix(-1 -1.224647e-16 1.224647e-16 -1 294.6891 586.728)" style="opacity:0.2;" width="1.109" height="20.974"/>
					
						<rect x="144.352" y="282.877" transform="matrix(-1 -1.224647e-16 1.224647e-16 -1 289.813 586.728)" style="opacity:0.2;" width="1.109" height="20.974"/>
					
						<rect x="141.914" y="282.877" transform="matrix(-1 -1.224647e-16 1.224647e-16 -1 284.9368 586.728)" style="opacity:0.2;" width="1.109" height="20.974"/>
					
						<rect x="139.476" y="282.877" transform="matrix(-1 -1.224647e-16 1.224647e-16 -1 280.0608 586.728)" style="opacity:0.2;" width="1.109" height="20.974"/>
					
						<rect x="137.038" y="282.877" transform="matrix(-1 -1.224647e-16 1.224647e-16 -1 275.1846 586.728)" style="opacity:0.2;" width="1.109" height="20.974"/>
					
						<rect x="134.6" y="282.877" transform="matrix(-1 -1.224647e-16 1.224647e-16 -1 270.3085 586.728)" style="opacity:0.2;" width="1.109" height="20.974"/>
					
						<rect x="132.162" y="282.877" transform="matrix(-1 -1.224647e-16 1.224647e-16 -1 265.4324 586.728)" style="opacity:0.2;" width="1.109" height="20.974"/>
				</g>
			</g>
			<g>
				<g>
					<g>
						
							<rect x="82.453" y="281.951" transform="matrix(-1 -1.224647e-16 1.224647e-16 -1 208.9595 586.728)" style="fill:#407BFF;" width="44.054" height="22.826"/>
						
							<rect x="82.453" y="281.951" transform="matrix(-1 -1.224647e-16 1.224647e-16 -1 208.9595 586.728)" style="opacity:0.4;fill:#FAFAFA;" width="44.054" height="22.826"/>
					</g>
					<g>
						<rect x="71.135" y="281.951" style="fill:#407BFF;" width="11.318" height="22.826"/>
						<rect x="71.135" y="281.951" style="opacity:0.4;fill:#FAFAFA;" width="11.318" height="22.826"/>
						<rect x="71.135" y="281.951" style="opacity:0.2;" width="11.318" height="22.826"/>
					</g>
				</g>
				<g>
					
						<rect x="124.649" y="282.877" transform="matrix(-1 -1.224647e-16 1.224647e-16 -1 250.4065 586.728)" style="opacity:0.2;" width="1.109" height="20.974"/>
					
						<rect x="122.211" y="282.877" transform="matrix(-1 -1.224647e-16 1.224647e-16 -1 245.5304 586.728)" style="opacity:0.2;" width="1.109" height="20.974"/>
					
						<rect x="119.773" y="282.877" transform="matrix(-1 -1.224647e-16 1.224647e-16 -1 240.6542 586.728)" style="opacity:0.2;" width="1.109" height="20.974"/>
					
						<rect x="117.335" y="282.877" transform="matrix(-1 -1.224647e-16 1.224647e-16 -1 235.7781 586.728)" style="opacity:0.2;" width="1.109" height="20.974"/>
					
						<rect x="114.896" y="282.877" transform="matrix(-1 -1.224647e-16 1.224647e-16 -1 230.902 586.728)" style="opacity:0.2;" width="1.109" height="20.974"/>
					
						<rect x="112.459" y="282.877" transform="matrix(-1 -1.224647e-16 1.224647e-16 -1 226.0259 586.728)" style="opacity:0.2;" width="1.109" height="20.974"/>
					
						<rect x="110.02" y="282.877" transform="matrix(-1 -1.224647e-16 1.224647e-16 -1 221.1498 586.728)" style="opacity:0.2;" width="1.109" height="20.974"/>
					
						<rect x="107.582" y="282.877" transform="matrix(-1 -1.224647e-16 1.224647e-16 -1 216.2736 586.728)" style="opacity:0.2;" width="1.109" height="20.974"/>
					
						<rect x="105.144" y="282.877" transform="matrix(-1 -1.224647e-16 1.224647e-16 -1 211.3975 586.728)" style="opacity:0.2;" width="1.109" height="20.974"/>
					
						<rect x="102.706" y="282.877" transform="matrix(-1 -1.224647e-16 1.224647e-16 -1 206.5214 586.728)" style="opacity:0.2;" width="1.109" height="20.974"/>
					
						<rect x="100.268" y="282.877" transform="matrix(-1 -1.224647e-16 1.224647e-16 -1 201.6452 586.728)" style="opacity:0.2;" width="1.109" height="20.974"/>
					
						<rect x="97.83" y="282.877" transform="matrix(-1 -1.224647e-16 1.224647e-16 -1 196.7692 586.728)" style="opacity:0.2;" width="1.109" height="20.974"/>
					
						<rect x="95.392" y="282.877" transform="matrix(-1 -1.224647e-16 1.224647e-16 -1 191.893 586.728)" style="opacity:0.2;" width="1.109" height="20.974"/>
					
						<rect x="92.954" y="282.877" transform="matrix(-1 -1.224647e-16 1.224647e-16 -1 187.0169 586.728)" style="opacity:0.2;" width="1.109" height="20.974"/>
					
						<rect x="90.516" y="282.877" transform="matrix(-1 -1.224647e-16 1.224647e-16 -1 182.1408 586.728)" style="opacity:0.2;" width="1.109" height="20.974"/>
					
						<rect x="88.078" y="282.877" transform="matrix(-1 -1.224647e-16 1.224647e-16 -1 177.2646 586.728)" style="opacity:0.2;" width="1.109" height="20.974"/>
					
						<rect x="85.64" y="282.877" transform="matrix(-1 -1.224647e-16 1.224647e-16 -1 172.3886 586.728)" style="opacity:0.2;" width="1.109" height="20.974"/>
					
						<rect x="83.202" y="282.877" transform="matrix(-1 -1.224647e-16 1.224647e-16 -1 167.5124 586.728)" style="opacity:0.2;" width="1.109" height="20.974"/>
				</g>
			</g>
		</g>
		<g>
			<g>
				<rect x="165.95" y="178.399" style="fill:#407BFF;" width="20.657" height="32.08"/>
				<rect x="165.95" y="181.66" style="fill:#FFFFFF;" width="20.657" height="3.306"/>
				<rect x="165.95" y="188.792" style="fill:#FFFFFF;" width="20.657" height="2.553"/>
			</g>
			<g>
				<rect x="126.886" y="178.399" style="fill:#407BFF;" width="20.657" height="32.08"/>
				<rect x="126.886" y="181.66" style="fill:#FFFFFF;" width="20.657" height="3.306"/>
				<rect x="126.886" y="188.792" style="fill:#FFFFFF;" width="20.657" height="2.553"/>
			</g>
			<g>
				<rect x="104.966" y="223.987" style="fill:#E0E0E0;" width="26.181" height="80.79"/>
				<g>
					<rect x="107.879" y="235.024" style="opacity:0.7;fill:#FFFFFF;" width="17.733" height="1.744"/>
					<rect x="107.879" y="241.766" style="opacity:0.7;fill:#FFFFFF;" width="17.733" height="1.744"/>
					<rect x="107.879" y="248.509" style="opacity:0.7;fill:#FFFFFF;" width="17.733" height="1.744"/>
					<rect x="107.879" y="255.251" style="opacity:0.7;fill:#FFFFFF;" width="17.733" height="1.744"/>
					<rect x="107.879" y="261.994" style="opacity:0.7;fill:#FFFFFF;" width="17.733" height="1.744"/>
					<rect x="107.879" y="268.737" style="opacity:0.7;fill:#FFFFFF;" width="17.733" height="1.744"/>
					<rect x="107.879" y="275.479" style="opacity:0.7;fill:#FFFFFF;" width="17.733" height="1.744"/>
					<rect x="107.879" y="282.222" style="opacity:0.7;fill:#FFFFFF;" width="17.733" height="1.744"/>
				</g>
			</g>
			<g>
				
					<rect x="131.148" y="223.987" transform="matrix(-1 -1.224647e-16 1.224647e-16 -1 334.4064 528.7643)" style="fill:#FAFAFA;" width="72.111" height="80.79"/>
				<g style="opacity:0.8;">
					<rect x="139.082" y="232.869" style="opacity:0.2;" width="0.96" height="4.002"/>
					<rect x="152.903" y="232.869" style="opacity:0.2;" width="0.96" height="4.002"/>
					<rect x="166.723" y="232.869" style="opacity:0.2;" width="0.96" height="4.002"/>
					<rect x="180.544" y="232.869" style="opacity:0.2;" width="0.96" height="4.002"/>
					<rect x="194.364" y="232.869" style="opacity:0.2;" width="0.96" height="4.002"/>
					<rect x="139.082" y="245.525" style="opacity:0.2;" width="0.96" height="4.002"/>
					<rect x="152.903" y="245.525" style="opacity:0.2;" width="0.96" height="4.002"/>
					<rect x="166.723" y="245.525" style="opacity:0.2;" width="0.96" height="4.002"/>
					<rect x="180.544" y="245.525" style="opacity:0.2;" width="0.96" height="4.002"/>
					<rect x="194.364" y="245.525" style="opacity:0.2;" width="0.96" height="4.002"/>
					<rect x="139.082" y="258.182" style="opacity:0.2;" width="0.96" height="4.002"/>
					<rect x="152.903" y="258.182" style="opacity:0.2;" width="0.96" height="4.002"/>
					<rect x="166.723" y="258.182" style="opacity:0.2;" width="0.96" height="4.002"/>
					<rect x="180.544" y="258.182" style="opacity:0.2;" width="0.96" height="4.002"/>
					<rect x="194.364" y="258.182" style="opacity:0.2;" width="0.96" height="4.002"/>
					<rect x="139.082" y="270.838" style="opacity:0.2;" width="0.96" height="4.002"/>
					<rect x="152.903" y="270.838" style="opacity:0.2;" width="0.96" height="4.002"/>
					<rect x="166.723" y="270.838" style="opacity:0.2;" width="0.96" height="4.002"/>
					<rect x="180.544" y="270.838" style="opacity:0.2;" width="0.96" height="4.002"/>
					<rect x="194.364" y="270.838" style="opacity:0.2;" width="0.96" height="4.002"/>
					<rect x="139.082" y="283.494" style="opacity:0.2;" width="0.96" height="4.002"/>
					<rect x="152.903" y="283.494" style="opacity:0.2;" width="0.96" height="4.002"/>
					<rect x="166.723" y="283.494" style="opacity:0.2;" width="0.96" height="4.002"/>
					<rect x="180.544" y="283.494" style="opacity:0.2;" width="0.96" height="4.002"/>
					<rect x="194.364" y="283.494" style="opacity:0.2;" width="0.96" height="4.002"/>
					<rect x="139.082" y="296.151" style="opacity:0.2;" width="0.96" height="4.002"/>
					<rect x="152.903" y="296.151" style="opacity:0.2;" width="0.96" height="4.002"/>
					<rect x="166.723" y="296.151" style="opacity:0.2;" width="0.96" height="4.002"/>
					<rect x="180.544" y="296.151" style="opacity:0.2;" width="0.96" height="4.002"/>
					<rect x="194.364" y="296.151" style="opacity:0.2;" width="0.96" height="4.002"/>
				</g>
			</g>
			<g>
				<rect x="113.573" y="205.883" style="fill:#E0E0E0;" width="21.597" height="18.104"/>
				
					<rect x="135.169" y="205.883" transform="matrix(-1 -1.224647e-16 1.224647e-16 -1 329.8215 429.87)" style="fill:#FAFAFA;" width="59.482" height="18.104"/>
				
					<rect x="113.573" y="205.883" transform="matrix(-1 -1.224647e-16 1.224647e-16 -1 308.225 415.3866)" style="opacity:0.1;" width="81.079" height="3.621"/>
				<g>
					<rect x="139.262" y="212.376" style="opacity:0.2;" width="3.273" height="3.273"/>
					<rect x="144.065" y="212.376" style="opacity:0.2;" width="3.273" height="3.273"/>
					<rect x="148.867" y="212.376" style="opacity:0.2;" width="3.273" height="3.273"/>
					<rect x="153.67" y="212.376" style="opacity:0.2;" width="3.273" height="3.273"/>
					<rect x="158.472" y="212.376" style="opacity:0.2;" width="3.273" height="3.273"/>
					<rect x="163.274" y="212.376" style="opacity:0.2;" width="3.273" height="3.273"/>
					<rect x="168.077" y="212.376" style="opacity:0.2;" width="3.273" height="3.273"/>
					<rect x="172.879" y="212.376" style="opacity:0.2;" width="3.273" height="3.273"/>
					<rect x="177.682" y="212.376" style="opacity:0.2;" width="3.273" height="3.273"/>
					<rect x="182.484" y="212.376" style="opacity:0.2;" width="3.273" height="3.273"/>
					<rect x="187.286" y="212.376" style="opacity:0.2;" width="3.273" height="3.273"/>
					<rect x="139.262" y="217.128" style="opacity:0.2;" width="3.273" height="3.273"/>
					<rect x="144.065" y="217.128" style="opacity:0.2;" width="3.273" height="3.273"/>
					<rect x="148.867" y="217.128" style="opacity:0.2;" width="3.273" height="3.273"/>
					<rect x="153.67" y="217.128" style="opacity:0.2;" width="3.273" height="3.273"/>
					<rect x="158.472" y="217.128" style="opacity:0.2;" width="3.273" height="3.273"/>
					<rect x="163.274" y="217.128" style="opacity:0.2;" width="3.273" height="3.273"/>
					<rect x="168.077" y="217.128" style="opacity:0.2;" width="3.273" height="3.273"/>
					<rect x="172.879" y="217.128" style="opacity:0.2;" width="3.273" height="3.273"/>
					<rect x="177.682" y="217.128" style="opacity:0.2;" width="3.273" height="3.273"/>
					<rect x="182.484" y="217.128" style="opacity:0.2;" width="3.273" height="3.273"/>
					<rect x="187.286" y="217.128" style="opacity:0.2;" width="3.273" height="3.273"/>
				</g>
			</g>
			<g>
				<polygon style="fill:#E0E0E0;" points="131.623,195.802 101.542,195.802 105.983,205.883 131.623,205.883 				"/>
				<polygon style="fill:#FAFAFA;" points="131.623,195.802 206.683,195.802 202.242,205.883 131.623,205.883 				"/>
			</g>
		</g>
		<g>
			<g>
				<g>
					<g>
						
							<rect x="267.156" y="281.951" transform="matrix(-1 -1.224647e-16 1.224647e-16 -1 593.2206 586.728)" style="fill:#407BFF;" width="58.908" height="22.826"/>
						
							<rect x="267.156" y="281.951" transform="matrix(-1 -1.224647e-16 1.224647e-16 -1 593.2206 586.728)" style="opacity:0.4;fill:#FAFAFA;" width="58.908" height="22.826"/>
					</g>
					<g>
						<rect x="252.023" y="281.951" style="fill:#407BFF;" width="15.133" height="22.826"/>
						<rect x="252.023" y="281.951" style="opacity:0.4;fill:#FAFAFA;" width="15.133" height="22.826"/>
						<rect x="252.023" y="281.951" style="opacity:0.2;" width="15.133" height="22.826"/>
					</g>
				</g>
				<g>
					
						<rect x="323.58" y="282.877" transform="matrix(-1 -1.224647e-16 1.224647e-16 -1 648.6425 586.728)" style="opacity:0.2;" width="1.483" height="20.974"/>
					
						<rect x="320.32" y="282.877" transform="matrix(-1 -1.224647e-16 1.224647e-16 -1 642.1223 586.728)" style="opacity:0.2;" width="1.483" height="20.974"/>
					
						<rect x="317.06" y="282.877" transform="matrix(-1 -1.224647e-16 1.224647e-16 -1 635.6021 586.728)" style="opacity:0.2;" width="1.483" height="20.974"/>
					
						<rect x="313.799" y="282.877" transform="matrix(-1 -1.224647e-16 1.224647e-16 -1 629.0818 586.728)" style="opacity:0.2;" width="1.483" height="20.974"/>
					
						<rect x="310.539" y="282.877" transform="matrix(-1 -1.224647e-16 1.224647e-16 -1 622.5615 586.728)" style="opacity:0.2;" width="1.483" height="20.974"/>
					
						<rect x="307.279" y="282.877" transform="matrix(-1 -1.224647e-16 1.224647e-16 -1 616.0413 586.728)" style="opacity:0.2;" width="1.483" height="20.974"/>
					
						<rect x="304.019" y="282.877" transform="matrix(-1 -1.224647e-16 1.224647e-16 -1 609.5211 586.728)" style="opacity:0.2;" width="1.483" height="20.974"/>
					
						<rect x="300.759" y="282.877" transform="matrix(-1 -1.224647e-16 1.224647e-16 -1 603.0009 586.728)" style="opacity:0.2;" width="1.483" height="20.974"/>
					
						<rect x="297.499" y="282.877" transform="matrix(-1 -1.224647e-16 1.224647e-16 -1 596.4807 586.728)" style="opacity:0.2;" width="1.483" height="20.974"/>
					
						<rect x="294.239" y="282.877" transform="matrix(-1 -1.224647e-16 1.224647e-16 -1 589.9605 586.728)" style="opacity:0.2;" width="1.483" height="20.974"/>
					
						<rect x="290.979" y="282.877" transform="matrix(-1 -1.224647e-16 1.224647e-16 -1 583.4403 586.728)" style="opacity:0.2;" width="1.483" height="20.974"/>
					
						<rect x="287.719" y="282.877" transform="matrix(-1 -1.224647e-16 1.224647e-16 -1 576.9201 586.728)" style="opacity:0.2;" width="1.483" height="20.974"/>
					
						<rect x="284.458" y="282.877" transform="matrix(-1 -1.224647e-16 1.224647e-16 -1 570.3998 586.728)" style="opacity:0.2;" width="1.483" height="20.974"/>
					
						<rect x="281.198" y="282.877" transform="matrix(-1 -1.224647e-16 1.224647e-16 -1 563.8795 586.728)" style="opacity:0.2;" width="1.483" height="20.974"/>
					
						<rect x="277.938" y="282.877" transform="matrix(-1 -1.224647e-16 1.224647e-16 -1 557.3593 586.728)" style="opacity:0.2;" width="1.483" height="20.974"/>
					
						<rect x="274.678" y="282.877" transform="matrix(-1 -1.224647e-16 1.224647e-16 -1 550.8391 586.728)" style="opacity:0.2;" width="1.483" height="20.974"/>
					
						<rect x="271.418" y="282.877" transform="matrix(-1 -1.224647e-16 1.224647e-16 -1 544.3189 586.728)" style="opacity:0.2;" width="1.483" height="20.974"/>
					
						<rect x="268.158" y="282.877" transform="matrix(-1 -1.224647e-16 1.224647e-16 -1 537.7987 586.728)" style="opacity:0.2;" width="1.483" height="20.974"/>
				</g>
			</g>
			<g>
				<g>
					
						<rect x="197.377" y="281.951" transform="matrix(-1 -1.224647e-16 1.224647e-16 -1 453.6615 586.728)" style="fill:#407BFF;" width="58.908" height="22.826"/>
					<g>
						<rect x="182.243" y="281.951" style="fill:#407BFF;" width="15.133" height="22.826"/>
						<rect x="182.243" y="281.951" style="opacity:0.2;" width="15.133" height="22.826"/>
					</g>
				</g>
				<g>
					
						<rect x="253.8" y="282.877" transform="matrix(-1 -1.224647e-16 1.224647e-16 -1 509.0833 586.728)" style="opacity:0.2;" width="1.483" height="20.974"/>
					
						<rect x="250.54" y="282.877" transform="matrix(-1 -1.224647e-16 1.224647e-16 -1 502.5631 586.728)" style="opacity:0.2;" width="1.483" height="20.974"/>
					
						<rect x="247.28" y="282.877" transform="matrix(-1 -1.224647e-16 1.224647e-16 -1 496.0429 586.728)" style="opacity:0.2;" width="1.483" height="20.974"/>
					
						<rect x="244.02" y="282.877" transform="matrix(-1 -1.224647e-16 1.224647e-16 -1 489.5227 586.728)" style="opacity:0.2;" width="1.483" height="20.974"/>
					
						<rect x="240.76" y="282.877" transform="matrix(-1 -1.224647e-16 1.224647e-16 -1 483.0025 586.728)" style="opacity:0.2;" width="1.483" height="20.974"/>
					
						<rect x="237.5" y="282.877" transform="matrix(-1 -1.224647e-16 1.224647e-16 -1 476.4823 586.728)" style="opacity:0.2;" width="1.483" height="20.974"/>
					
						<rect x="234.24" y="282.877" transform="matrix(-1 -1.224647e-16 1.224647e-16 -1 469.9621 586.728)" style="opacity:0.2;" width="1.483" height="20.974"/>
					
						<rect x="230.98" y="282.877" transform="matrix(-1 -1.224647e-16 1.224647e-16 -1 463.4418 586.728)" style="opacity:0.2;" width="1.483" height="20.974"/>
					
						<rect x="227.719" y="282.877" transform="matrix(-1 -1.224647e-16 1.224647e-16 -1 456.9215 586.728)" style="opacity:0.2;" width="1.483" height="20.974"/>
					
						<rect x="224.459" y="282.877" transform="matrix(-1 -1.224647e-16 1.224647e-16 -1 450.4013 586.728)" style="opacity:0.2;" width="1.483" height="20.974"/>
					
						<rect x="221.199" y="282.877" transform="matrix(-1 -1.224647e-16 1.224647e-16 -1 443.8811 586.728)" style="opacity:0.2;" width="1.483" height="20.974"/>
					
						<rect x="217.939" y="282.877" transform="matrix(-1 -1.224647e-16 1.224647e-16 -1 437.3609 586.728)" style="opacity:0.2;" width="1.483" height="20.974"/>
					
						<rect x="214.679" y="282.877" transform="matrix(-1 -1.224647e-16 1.224647e-16 -1 430.8407 586.728)" style="opacity:0.2;" width="1.483" height="20.974"/>
					
						<rect x="211.419" y="282.877" transform="matrix(-1 -1.224647e-16 1.224647e-16 -1 424.3205 586.728)" style="opacity:0.2;" width="1.483" height="20.974"/>
					
						<rect x="208.159" y="282.877" transform="matrix(-1 -1.224647e-16 1.224647e-16 -1 417.8003 586.728)" style="opacity:0.2;" width="1.483" height="20.974"/>
					
						<rect x="204.899" y="282.877" transform="matrix(-1 -1.224647e-16 1.224647e-16 -1 411.28 586.728)" style="opacity:0.2;" width="1.483" height="20.974"/>
					
						<rect x="201.638" y="282.877" transform="matrix(-1 -1.224647e-16 1.224647e-16 -1 404.7597 586.728)" style="opacity:0.2;" width="1.483" height="20.974"/>
					
						<rect x="198.378" y="282.877" transform="matrix(-1 -1.224647e-16 1.224647e-16 -1 398.2395 586.728)" style="opacity:0.2;" width="1.483" height="20.974"/>
				</g>
			</g>
			<g>
				<g>
					
						<rect x="257.534" y="259.124" transform="matrix(-1 -1.224647e-16 1.224647e-16 -1 573.9757 541.0752)" style="fill:#407BFF;" width="58.908" height="22.826"/>
					<g>
						<rect x="242.4" y="259.124" style="fill:#407BFF;" width="15.134" height="22.826"/>
						<rect x="242.4" y="259.124" style="opacity:0.2;" width="15.134" height="22.826"/>
					</g>
				</g>
				<g>
					
						<rect x="313.957" y="260.051" transform="matrix(-1 -1.224647e-16 1.224647e-16 -1 629.3975 541.0752)" style="opacity:0.2;" width="1.483" height="20.974"/>
					
						<rect x="310.697" y="260.051" transform="matrix(-1 -1.224647e-16 1.224647e-16 -1 622.8773 541.0752)" style="opacity:0.2;" width="1.483" height="20.974"/>
					
						<rect x="307.437" y="260.051" transform="matrix(-1 -1.224647e-16 1.224647e-16 -1 616.3571 541.0752)" style="opacity:0.2;" width="1.483" height="20.974"/>
					
						<rect x="304.177" y="260.051" transform="matrix(-1 -1.224647e-16 1.224647e-16 -1 609.8369 541.0752)" style="opacity:0.2;" width="1.483" height="20.974"/>
					
						<rect x="300.917" y="260.051" transform="matrix(-1 -1.224647e-16 1.224647e-16 -1 603.3167 541.0752)" style="opacity:0.2;" width="1.483" height="20.974"/>
					
						<rect x="297.657" y="260.051" transform="matrix(-1 -1.224647e-16 1.224647e-16 -1 596.7965 541.0752)" style="opacity:0.2;" width="1.483" height="20.974"/>
					
						<rect x="294.397" y="260.051" transform="matrix(-1 -1.224647e-16 1.224647e-16 -1 590.2762 541.0752)" style="opacity:0.2;" width="1.483" height="20.974"/>
					
						<rect x="291.137" y="260.051" transform="matrix(-1 -1.224647e-16 1.224647e-16 -1 583.7559 541.0752)" style="opacity:0.2;" width="1.483" height="20.974"/>
					
						<rect x="287.876" y="260.051" transform="matrix(-1 -1.224647e-16 1.224647e-16 -1 577.2357 541.0752)" style="opacity:0.2;" width="1.483" height="20.974"/>
					
						<rect x="284.616" y="260.051" transform="matrix(-1 -1.224647e-16 1.224647e-16 -1 570.7155 541.0752)" style="opacity:0.2;" width="1.483" height="20.974"/>
					
						<rect x="281.356" y="260.051" transform="matrix(-1 -1.224647e-16 1.224647e-16 -1 564.1953 541.0752)" style="opacity:0.2;" width="1.483" height="20.974"/>
					
						<rect x="278.096" y="260.051" transform="matrix(-1 -1.224647e-16 1.224647e-16 -1 557.6751 541.0752)" style="opacity:0.2;" width="1.483" height="20.974"/>
					
						<rect x="274.836" y="260.051" transform="matrix(-1 -1.224647e-16 1.224647e-16 -1 551.1549 541.0752)" style="opacity:0.2;" width="1.483" height="20.974"/>
					
						<rect x="271.576" y="260.051" transform="matrix(-1 -1.224647e-16 1.224647e-16 -1 544.6347 541.0752)" style="opacity:0.2;" width="1.483" height="20.974"/>
					
						<rect x="268.316" y="260.051" transform="matrix(-1 -1.224647e-16 1.224647e-16 -1 538.1145 541.0752)" style="opacity:0.2;" width="1.483" height="20.974"/>
					
						<rect x="265.056" y="260.051" transform="matrix(-1 -1.224647e-16 1.224647e-16 -1 531.5942 541.0752)" style="opacity:0.2;" width="1.483" height="20.974"/>
					
						<rect x="261.796" y="260.051" transform="matrix(-1 -1.224647e-16 1.224647e-16 -1 525.0739 541.0752)" style="opacity:0.2;" width="1.483" height="20.974"/>
					
						<rect x="258.535" y="260.051" transform="matrix(-1 -1.224647e-16 1.224647e-16 -1 518.5537 541.0752)" style="opacity:0.2;" width="1.483" height="20.974"/>
				</g>
			</g>
			<g>
				<g>
					<g>
						
							<rect x="192.066" y="259.124" transform="matrix(-1 -1.224647e-16 1.224647e-16 -1 443.0397 541.0752)" style="fill:#407BFF;" width="58.908" height="22.826"/>
						
							<rect x="192.066" y="259.124" transform="matrix(-1 -1.224647e-16 1.224647e-16 -1 443.0397 541.0752)" style="opacity:0.4;fill:#FAFAFA;" width="58.908" height="22.826"/>
					</g>
					<g>
						<rect x="176.932" y="259.124" style="fill:#407BFF;" width="15.134" height="22.826"/>
						<rect x="176.932" y="259.124" style="opacity:0.4;fill:#FAFAFA;" width="15.134" height="22.826"/>
						<rect x="176.932" y="259.124" style="opacity:0.2;" width="15.134" height="22.826"/>
					</g>
				</g>
				<g>
					
						<rect x="248.489" y="260.051" transform="matrix(-1 -1.224647e-16 1.224647e-16 -1 498.4615 541.0752)" style="opacity:0.2;" width="1.483" height="20.974"/>
					
						<rect x="245.229" y="260.051" transform="matrix(-1 -1.224647e-16 1.224647e-16 -1 491.9413 541.0752)" style="opacity:0.2;" width="1.483" height="20.974"/>
					
						<rect x="241.969" y="260.051" transform="matrix(-1 -1.224647e-16 1.224647e-16 -1 485.4211 541.0752)" style="opacity:0.2;" width="1.483" height="20.974"/>
					
						<rect x="238.709" y="260.051" transform="matrix(-1 -1.224647e-16 1.224647e-16 -1 478.9009 541.0752)" style="opacity:0.2;" width="1.483" height="20.974"/>
					
						<rect x="235.449" y="260.051" transform="matrix(-1 -1.224647e-16 1.224647e-16 -1 472.3807 541.0752)" style="opacity:0.2;" width="1.483" height="20.974"/>
					
						<rect x="232.189" y="260.051" transform="matrix(-1 -1.224647e-16 1.224647e-16 -1 465.8605 541.0752)" style="opacity:0.2;" width="1.483" height="20.974"/>
					
						<rect x="228.929" y="260.051" transform="matrix(-1 -1.224647e-16 1.224647e-16 -1 459.3402 541.0752)" style="opacity:0.2;" width="1.483" height="20.974"/>
					
						<rect x="225.669" y="260.051" transform="matrix(-1 -1.224647e-16 1.224647e-16 -1 452.8199 541.0752)" style="opacity:0.2;" width="1.483" height="20.974"/>
					
						<rect x="222.408" y="260.051" transform="matrix(-1 -1.224647e-16 1.224647e-16 -1 446.2997 541.0752)" style="opacity:0.2;" width="1.483" height="20.974"/>
					
						<rect x="219.148" y="260.051" transform="matrix(-1 -1.224647e-16 1.224647e-16 -1 439.7795 541.0752)" style="opacity:0.2;" width="1.483" height="20.974"/>
					
						<rect x="215.888" y="260.051" transform="matrix(-1 -1.224647e-16 1.224647e-16 -1 433.2593 541.0752)" style="opacity:0.2;" width="1.483" height="20.974"/>
					
						<rect x="212.628" y="260.051" transform="matrix(-1 -1.224647e-16 1.224647e-16 -1 426.7391 541.0752)" style="opacity:0.2;" width="1.483" height="20.974"/>
					
						<rect x="209.368" y="260.051" transform="matrix(-1 -1.224647e-16 1.224647e-16 -1 420.2189 541.0752)" style="opacity:0.2;" width="1.483" height="20.974"/>
					
						<rect x="206.108" y="260.051" transform="matrix(-1 -1.224647e-16 1.224647e-16 -1 413.6987 541.0752)" style="opacity:0.2;" width="1.483" height="20.974"/>
					
						<rect x="202.848" y="260.051" transform="matrix(-1 -1.224647e-16 1.224647e-16 -1 407.1784 541.0752)" style="opacity:0.2;" width="1.483" height="20.974"/>
					
						<rect x="199.588" y="260.051" transform="matrix(-1 -1.224647e-16 1.224647e-16 -1 400.6581 541.0752)" style="opacity:0.2;" width="1.483" height="20.974"/>
					
						<rect x="196.327" y="260.051" transform="matrix(-1 -1.224647e-16 1.224647e-16 -1 394.1379 541.0752)" style="opacity:0.2;" width="1.483" height="20.974"/>
					
						<rect x="193.067" y="260.051" transform="matrix(-1 -1.224647e-16 1.224647e-16 -1 387.6177 541.0752)" style="opacity:0.2;" width="1.483" height="20.974"/>
				</g>
			</g>
		</g>
		<g>
			<g>
				<path style="fill:#407BFF;" d="M248.066,287.131H79.844c-0.526,0-0.952,0.329-0.952,0.734v17.393
					c0,0.341,0.359,0.618,0.801,0.618s0.801-0.277,0.801-0.618c0,0,0-16.892,0-16.892H97.6v16.892c0,0.341,0.359,0.618,0.801,0.618
					s0.801-0.277,0.801-0.618c0,0,0-16.892,0-16.892h17.107l0,16.892c0,0.341,0.358,0.618,0.801,0.618
					c0.442,0,0.801-0.277,0.801-0.618c0,0,0-16.892,0-16.892h17.107v16.892c0,0.341,0.359,0.618,0.801,0.618
					c0.442,0,0.801-0.277,0.801-0.618c0,0,0-16.892,0-16.892h17.107v16.892c0,0.341,0.359,0.618,0.801,0.618
					c0.442,0,0.801-0.277,0.801-0.618c0,0,0-16.892,0-16.892h17.106v16.892c0,0.341,0.359,0.618,0.801,0.618
					c0.442,0,0.801-0.277,0.801-0.618c0,0,0-16.892,0-16.892h17.107v16.892c0,0.341,0.359,0.618,0.801,0.618
					c0.442,0,0.801-0.277,0.801-0.618c0,0,0-16.892,0-16.892h17.107v16.892c0,0.341,0.359,0.618,0.801,0.618
					c0.442,0,0.801-0.277,0.801-0.618c0,0,0-16.892,0-16.892h17.106v16.892c0,0.341,0.359,0.618,0.801,0.618
					c0.442,0,0.801-0.277,0.801-0.618c0,0,0-16.892,0-16.892h17.107l0,16.892c0,0.341,0.358,0.618,0.801,0.618
					c0.442,0,0.801-0.277,0.801-0.618v-17.509C248.867,287.408,248.508,287.131,248.066,287.131z"/>
				<path style="opacity:0.6;fill:#FAFAFA;" d="M248.066,287.131H79.844c-0.526,0-0.952,0.329-0.952,0.734v17.393
					c0,0.341,0.359,0.618,0.801,0.618s0.801-0.277,0.801-0.618c0,0,0-16.892,0-16.892H97.6v16.892c0,0.341,0.359,0.618,0.801,0.618
					s0.801-0.277,0.801-0.618c0,0,0-16.892,0-16.892h17.107l0,16.892c0,0.341,0.358,0.618,0.801,0.618
					c0.442,0,0.801-0.277,0.801-0.618c0,0,0-16.892,0-16.892h17.107v16.892c0,0.341,0.359,0.618,0.801,0.618
					c0.442,0,0.801-0.277,0.801-0.618c0,0,0-16.892,0-16.892h17.107v16.892c0,0.341,0.359,0.618,0.801,0.618
					c0.442,0,0.801-0.277,0.801-0.618c0,0,0-16.892,0-16.892h17.106v16.892c0,0.341,0.359,0.618,0.801,0.618
					c0.442,0,0.801-0.277,0.801-0.618c0,0,0-16.892,0-16.892h17.107v16.892c0,0.341,0.359,0.618,0.801,0.618
					c0.442,0,0.801-0.277,0.801-0.618c0,0,0-16.892,0-16.892h17.107v16.892c0,0.341,0.359,0.618,0.801,0.618
					c0.442,0,0.801-0.277,0.801-0.618c0,0,0-16.892,0-16.892h17.106v16.892c0,0.341,0.359,0.618,0.801,0.618
					c0.442,0,0.801-0.277,0.801-0.618c0,0,0-16.892,0-16.892h17.107l0,16.892c0,0.341,0.358,0.618,0.801,0.618
					c0.442,0,0.801-0.277,0.801-0.618v-17.509C248.867,287.408,248.508,287.131,248.066,287.131z"/>
			</g>
			<g>
				<path style="fill:#407BFF;" d="M284.798,304.777c3.388,0,6.673-1.176,9.286-3.326l31.117-25.626
					c2.614-2.158,5.892-3.333,9.287-3.333h133.011c1.683,0,2.955,1.516,2.684,3.177c-4.055,24.781-11.616,41.093-20.368,55.413
					c-1.369,2.247-2.773,4.446-4.197,6.624c-0.47,0.713-0.94,1.424-1.411,2.137c-1.473,2.22-2.96,4.418-4.46,6.624
					c-5.47,8.077-11.057,16.291-16.291,25.959h-0.003c-4.65,8.593-9.016,18.332-12.766,30.153
					c-2.583,8.125-10.116,13.66-18.648,13.66H96.705c-9.316,0-17.342-6.573-19.179-15.712l-5.634-28.103h0.001l-5.206-25.956
					l-1.328-6.624l-0.429-2.137l-1.321-6.624l-4.623-23.049c-0.338-1.684,0.95-3.255,2.667-3.255H284.798z M426.946,283.694
					c0.553,0.553,1.314,0.899,2.157,0.899h25.357c1.687,0,3.063-1.376,3.063-3.064c0-0.844-0.346-1.604-0.899-2.158
					c-0.553-0.553-1.327-0.899-2.164-0.899h-25.357c-1.687,0-3.063,1.376-3.063,3.057
					C426.04,282.38,426.393,283.141,426.946,283.694z M373.28,279.372c-0.553-0.553-1.321-0.899-2.157-0.899h-25.364
					c-1.68,0-3.056,1.376-3.056,3.057c0,0.851,0.346,1.612,0.899,2.165c0.553,0.553,1.314,0.899,2.157,0.899h25.364
					c1.68,0,3.056-1.376,3.056-3.064C374.179,280.686,373.833,279.925,373.28,279.372z M414.949,279.372
					c-0.553-0.553-1.314-0.899-2.158-0.899h-25.357c-1.687,0-3.063,1.376-3.063,3.057c0,0.851,0.346,1.612,0.899,2.165
					c0.553,0.553,1.321,0.899,2.164,0.899h25.357c1.68,0,3.056-1.376,3.056-3.064C415.848,280.686,415.502,279.925,414.949,279.372z
					"/>
				<path style="opacity:0.3;" d="M64.93,337.706l0.429,2.137l1.328,6.624h373.059c1.5-2.206,2.987-4.405,4.46-6.624
					c0.47-0.712,0.94-1.424,1.411-2.137H64.93z"/>
				<path style="opacity:0.3;" d="M297.812,330.24h42.263c3.84,0,6.953-3.113,6.953-6.953v0c0-3.84-3.113-6.953-6.953-6.953h-42.263
					c-3.84,0-6.953,3.113-6.953,6.953v0C290.859,327.127,293.972,330.24,297.812,330.24z"/>
				<path style="opacity:0.3;" d="M228.559,330.24h42.263c3.84,0,6.953-3.113,6.953-6.953v0c0-3.84-3.113-6.953-6.953-6.953h-42.263
					c-3.84,0-6.953,3.113-6.953,6.953v0C221.606,327.127,224.719,330.24,228.559,330.24z"/>
				<path style="opacity:0.3;" d="M367.065,330.24h42.263c3.84,0,6.953-3.113,6.953-6.953v0c0-3.84-3.113-6.953-6.953-6.953h-42.263
					c-3.84,0-6.953,3.113-6.953,6.953v0C360.112,327.127,363.225,330.24,367.065,330.24z"/>
				<path style="opacity:0.3;" d="M410.685,402.578c-2.583,8.125-10.116,13.66-18.648,13.66H96.705
					c-9.316,0-17.342-6.572-19.179-15.712l-5.634-28.103h351.562C418.803,381.016,414.437,390.756,410.685,402.578z"/>
			</g>
		</g>
	</g>
</g>
</svg>
